<svg width="17" height="17" viewBox="0 0 17 17" fill="none" xmlns="http://www.w3.org/2000/svg">
<g clip-path="url(#clip0_147_1055)">
<path d="M12.12 2.92188H1.46375C1.08875 2.92188 0.771037 3.05208 0.51062 3.3125C0.250203 3.57292 0.119995 3.88542 0.119995 4.25V12.25C0.119995 12.6146 0.250203 12.9271 0.51062 13.1875C0.771037 13.4479 1.08875 13.5781 1.46375 13.5781H12.12C12.495 13.5781 12.8127 13.4479 13.0731 13.1875C13.3335 12.9271 13.4637 12.6146 13.4637 12.25V4.25C13.4637 3.88542 13.3335 3.57292 13.0731 3.3125C12.8127 3.05208 12.495 2.92188 12.12 2.92188ZM12.12 6.04688L6.79187 9.60938L1.46375 6.04688V4.45312L6.79187 8L12.12 4.45312V6.04688Z" fill="white"/>
</g>
<defs>
<clipPath id="clip0_147_1055">
<rect width="16" height="16" fill="white" transform="matrix(1 0 0 -1 0.119995 16.25)"/>
</clipPath>
</defs>
</svg>
