<svg width="16" height="17" viewBox="0 0 16 17" fill="none" xmlns="http://www.w3.org/2000/svg">
<g clip-path="url(#clip0_147_1031)">
<path d="M5.32842 1.57812C4.58884 1.57812 3.89613 1.71875 3.25029 2C2.60446 2.28125 2.03936 2.66406 1.55498 3.14844C1.07061 3.63281 0.693003 4.19792 0.42217 4.84375C0.14092 5.48958 0.000294811 6.17708 0.000294811 6.90625C-0.0101219 7.98958 0.255503 9.00521 0.79717 9.95312C1.32842 10.9115 1.92217 11.7526 2.57842 12.4766C3.23467 13.2005 3.84404 13.776 4.40654 14.2031C4.96904 14.6406 5.27634 14.8802 5.32842 14.9219C5.32842 14.9219 5.60967 14.7031 6.17217 14.2656C6.72425 13.8385 7.33363 13.2578 8.00029 12.5234C8.66696 11.7891 9.28154 10.9427 9.84404 9.98438C10.3961 9.01562 10.667 7.99479 10.6565 6.92188C10.6565 6.18229 10.5159 5.48958 10.2347 4.84375C9.96384 4.19792 9.58623 3.63281 9.10186 3.14844C8.61748 2.66406 8.05238 2.28125 7.40654 2C6.76071 1.71875 6.068 1.57812 5.32842 1.57812ZM5.32842 9.57812C4.58884 9.57812 3.95863 9.31771 3.43779 8.79688C2.91696 8.27604 2.65654 7.65104 2.65654 6.92188C2.65654 6.18229 2.91696 5.55208 3.43779 5.03125C3.95863 4.51042 4.58884 4.25 5.32842 4.25C6.068 4.25 6.69821 4.51042 7.21904 5.03125C7.73988 5.55208 8.00029 6.18229 8.00029 6.92188C8.00029 7.65104 7.73988 8.27604 7.21904 8.79688C6.69821 9.31771 6.068 9.57812 5.32842 9.57812Z" fill="white"/>
</g>
<defs>
<clipPath id="clip0_147_1031">
<rect width="16" height="16" fill="white" transform="matrix(1 0 0 -1 0 16.25)"/>
</clipPath>
</defs>
</svg>
