<svg width="16" height="17" viewBox="0 0 16 17" fill="none" xmlns="http://www.w3.org/2000/svg">
<path d="M11.6562 11.6719L8.95312 9.21875C8.81771 9.09375 8.65885 9.03385 8.47656 9.03906C8.29427 9.04427 8.14062 9.10938 8.01562 9.23438L6.42188 10.875C6.23438 10.8438 5.96354 10.7526 5.60938 10.6016C5.25521 10.4505 4.875 10.1771 4.46875 9.78125C4.07292 9.375 3.79948 8.99479 3.64844 8.64062C3.4974 8.28646 3.40625 8.01562 3.375 7.82812L5 6.23438C5.13542 6.10938 5.20573 5.95573 5.21094 5.77344C5.21615 5.59115 5.15625 5.43229 5.03125 5.29688L2.57812 2.59375C2.45312 2.45833 2.29948 2.38542 2.11719 2.375C1.9349 2.36458 1.77604 2.41667 1.64062 2.53125L0.203125 3.78125C0.140625 3.83333 0.09375 3.89583 0.0625 3.96875C0.03125 4.04167 0.0104167 4.11979 0 4.20312C0 4.24479 0.00520833 4.5 0.015625 4.96875C0.0260417 5.4375 0.114583 6.01823 0.28125 6.71094C0.447917 7.40365 0.729167 8.16667 1.125 9C1.52083 9.82292 2.09896 10.6198 2.85938 11.3906C3.53646 12.0573 4.23438 12.5781 4.95312 12.9531C5.67188 13.3385 6.35156 13.6276 6.99219 13.8203C7.63281 14.013 8.20312 14.1302 8.70312 14.1719C9.20312 14.224 9.56771 14.25 9.79688 14.25C9.86979 14.25 9.92708 14.25 9.96875 14.25C10.0104 14.25 10.0365 14.25 10.0469 14.25C10.1302 14.2396 10.2083 14.2188 10.2812 14.1875C10.3542 14.1562 10.4167 14.1094 10.4688 14.0469L11.7188 12.6094C11.8333 12.4635 11.8854 12.3021 11.875 12.125C11.8646 11.9479 11.7917 11.7969 11.6562 11.6719Z" fill="white"/>
</svg>
